<svg xmlns="http://www.w3.org/2000/svg" width="27.001" height="27.002" viewBox="0 0 27.001 27.002"><path d="M27 13.5A13.5 13.5 0 0 0 13.5 0 13.5 13.5 0 0 0 0 13.5a13.5 13.5 0 0 0 11.391 13.337v-9.434H7.963v-3.9h3.428v-2.974c0-3.384 2.016-5.253 5.1-5.253a20.771 20.771 0 0 1 3.022.264v3.323h-1.7a1.951 1.951 0 0 0-2.2 2.108v2.533h3.744l-.6 3.9H15.61v9.434A13.5 13.5 0 0 0 27 13.5" fill="#1877f2"/><path d="M18.755 17.403l.6-3.9h-3.744V10.97a1.951 1.951 0 0 1 2.2-2.109h1.7V5.539a20.753 20.753 0 0 0-3.022-.264c-3.084 0-5.1 1.869-5.1 5.253v2.975H7.961v3.9h3.428v9.434a13.594 13.594 0 0 0 2.109.164 13.592 13.592 0 0 0 2.109-.164v-9.434h3.146" fill="#fff"/></svg>