<svg xmlns="http://www.w3.org/2000/svg" width="27" height="27" viewBox="0 0 27 27"><path d="M23.625,27H3.375A3.376,3.376,0,0,1,0,23.625V3.375A3.376,3.376,0,0,1,3.375,0h20.25A3.376,3.376,0,0,1,27,3.375v20.25A3.376,3.376,0,0,1,23.625,27Z" fill="#1da1f2"/><path d="M10.368,20.358a9.785,9.785,0,0,0,9.848-9.848c0-.148,0-.3-.007-.446a7.052,7.052,0,0,0,1.728-1.8,7.015,7.015,0,0,1-1.991.547A3.482,3.482,0,0,0,21.472,6.9a6.885,6.885,0,0,1-2.2.837A3.462,3.462,0,0,0,13.284,10.1a3.826,3.826,0,0,0,.088.79A9.829,9.829,0,0,1,6.237,7.277,3.475,3.475,0,0,0,7.31,11.9a3.5,3.5,0,0,1-1.566-.432v.047a3.469,3.469,0,0,0,2.774,3.4,3.481,3.481,0,0,1-1.559.061,3.461,3.461,0,0,0,3.233,2.4,6.942,6.942,0,0,1-4.3,1.485,6.661,6.661,0,0,1-.823-.047,9.846,9.846,0,0,0,5.3,1.546" fill="#fff"/></svg>