<svg xmlns="http://www.w3.org/2000/svg" viewBox="0 0 195.75 33.67"><title>logo</title><path fill="none" stroke="#231815" d="M-193.92-392.08h595v842h-595z"/><path d="M11 32.9l9.75-21a2.7 2.7 0 0 1 2.68-1.46 17.75 17.75 0 0 1 5.24 1.09c5.08 2.23 5 6.79-.22 9.25a24.25 24.25 0 0 1-19 .58c-1.84-.68-6-3.05-5.9-6.18.12-4.63 5.45-5.92 8.55-6.39.28 0 .26-.09 0-.09A14.68 14.68 0 0 0 4 11c-3 2-4.79 6.26-1.55 10 6.22 7.22 19.5 7.44 28.62 4.35 12.24-4.15 12.59-13.57 6.14-19C31.23 1.28 22.73.76 19.28.81c-1.26 0-3 .23-3.22 2.3l-5.21 29.7c0 .24.1.27.19.09" fill="#004ea2"/><path d="M53.9 13.23L49 25.7c-.88 1.93-2.2 4.72-2.2 4.72 1.32 0 7.46 0 9-4.5L61 12.5h12.76l-2.66 6.79H60.35l-1 2.64H70c2.86 0 7.37-1.84 8.16-3.61l1.48-3.74c1.19-3-2.71-4.46-5.35-4.5H53a2.76 2.76 0 0 1 .92 3.15M85.7 7.21L79.93 22h6.82l3.71-9.53h10.85L97.63 22h6.7l3-7.47c.61-1.54-.69-4.39-4.46-4.43H91.4l2.22-5.82c.07-.24-.06-.72-.4-.72H84.6a3.44 3.44 0 0 1 1.1 3.61m33.41 3.57c.07-.24-.06-.73-.41-.73h-8.61a3.46 3.46 0 0 1 1.1 3.62L108 22h6.75zm2.68-5.51c.17 1.39-2 2.79-4.79 3.13s-5.24-.5-5.41-1.88 2-2.78 4.78-3.12 5.24.5 5.42 1.87m4.44 4.83l1.17-3h6.68l-1.21 3.11h6.64a11.29 11.29 0 0 0-1.14 2.27H132l-2.72 7h6.4L134.6 22h-12.86s0-.24.05-.58l3.52-9.06h-3.39c0-.37.3-1.71-.91-2.34zm63.51 0c3.77 0 5.95 2.36 5.2 4.43L192.08 22h-7.31l3.74-9.61h-10L174.77 22h-7.33l3.27-8.39A3.47 3.47 0 0 0 169.6 10zm-44.15 7.16h19.85s.55-1.23 1.43-3.57-3.4-3.65-4.87-3.59h-13.37c-3.73 0-7.56 2.56-8.17 4L139 17.83c-.74 2.17 2.77 4.17 5 4.17h19.57l1.07-2.54h-18.88l2.78-7.18h12.05l-1.11 2.84h-13z" fill="#231815"/></svg>