<svg xmlns="http://www.w3.org/2000/svg" xmlns:xlink="http://www.w3.org/1999/xlink" width="224" height="68" viewBox="0 0 224 68"><defs><path id="a" d="M0 .353h46.509v36.858H0z"/><path id="c" d="M.712.4h14.154v15.202H.712z"/><path id="e" d="M0 67.514h222.461V.78H0z"/></defs><g fill="none" fill-rule="evenodd" transform="translate(.797 -.323)"><g transform="translate(0 .427)"><mask id="b" fill="#fff"><use xlink:href="#a"/></mask><path fill="#003594" d="M31.777 23.207c-5.023 2.371-10.024 2.896-14.635 2.367l5.813-12.524c.454-1.007 1.685-1.8 3.069-1.675.719.077 3.657.226 5.995 1.247 5.81 2.552 5.75 7.765-.242 10.585M41.755 6.69C34.9.894 25.187.294 21.22.357c-1.43.027-3.416.257-3.666 2.638l-3.86 21.958c-1.279-.3-2.522-.65-3.696-1.082-2.095-.774-6.825-3.484-6.752-7.07.12-5.31 6.19-6.78 9.766-7.315.314-.053.299-.108 0-.108-3.952.073-7.082 1.125-9.253 2.616-3.405 2.336-5.51 7.182-1.804 11.479 2.71 3.144 6.589 5.118 10.919 6.175l-1.282 7.324c-.062.285.087.307.201.112L15.04 30.1c6.554 1.116 13.86.334 19.69-1.644 14-4.748 14.413-15.531 7.025-21.766" mask="url(#b)"/></g><path fill="#2D2A26" d="M84.185 11.387H59.814c.572.384 1.736 1.884 1.045 3.604l-5.673 14.284a704.735 704.735 0 0 1-2.513 5.395c1.505 0 8.536 0 10.3-5.154L68.96 14.16h14.62l-3.042 7.767H68.23l-1.088 3.021h12.132c3.276 0 8.445-2.096 9.353-4.134l1.685-4.273c1.363-3.455-3.106-5.104-6.127-5.154zm98.793 2.56h-13.78l-1.27 3.263h13.776l1.274-3.262zm7.182 1.537c-1.01 2.66-1.627 4.084-1.627 4.084H167.01l-1.013 2.602h21.553l-1.22 2.913h-22.396c-2.499-.09-6.52-2.356-5.67-4.82l1.678-4.273c.683-1.694 5.072-4.621 9.338-4.621h15.298c1.692-.027 6.581 1.437 5.582 4.115zm-35.712 6.537h-7.328l3.119-7.973h7.308s.858-2.188 1.298-2.604h-7.591l1.37-3.557h-7.631l-1.343 3.469h-5.963c1.375.735 1.02 2.258 1.02 2.692h3.881l-4.033 10.368c-.032.387-.105.667-.054.667h14.722l1.225-3.062zm64.579 3.054l3.266-8.637c.859-2.368-1.644-5.024-5.963-5.082l-23.048-.014c1.334.993 1.675 2.982 1.271 4.142l-3.73 9.6h8.383l4.247-11.014h11.476l-4.282 11.005h8.38zm-92.14-17.808c-.202-1.582 2.25-3.181 5.47-3.577 3.232-.393 6 .578 6.198 2.154.203 1.576-2.252 3.176-5.466 3.574-3.23.388-5.998-.57-6.203-2.15zm8.609 4.875l-5.02 12.941h-7.732l3.679-9.64c.412-1.147.08-3.144-1.257-4.133h9.864c.404 0 .546.55.466.832zm-13.52 4.39l-3.4 8.547h-7.666l4.205-10.913h-12.41L98.46 25.083h-7.81l6.612-16.985c.4-1.156.058-3.144-1.274-4.133h9.876c.395 0 .529.55.459.832l-2.543 6.666h13.087c4.315.037 5.822 3.294 5.109 5.07z"/><g transform="translate(29.643 51.912)"><mask id="d" fill="#fff"><use xlink:href="#c"/></mask><path fill="#2D2A26" d="M4.229 8.045c0 2.883 1.354 4.914 3.582 4.914 2.25 0 3.538-2.14 3.538-5.002 0-2.643-1.267-4.914-3.56-4.914-2.25 0-3.56 2.14-3.56 5.002m10.637-.197c0 4.827-2.927 7.754-7.23 7.754-4.368 0-6.924-3.298-6.924-7.492C.712 3.698 3.53.4 7.876.4c4.522 0 6.99 3.385 6.99 7.448" mask="url(#d)"/></g><path fill="#2D2A26" d="M47.13 52.552h8.999v2.73h-5.657v3.364h5.285v2.709h-5.285v5.919H47.13zm11.947 0h8.999v2.73h-5.657v3.364h5.286v2.709h-5.286v5.919h-3.342z"/><mask id="f" fill="#fff"><use xlink:href="#e"/></mask><path fill="#2D2A26" mask="url(#f)" d="M71.024 67.274h3.342V52.552h-3.342zm17.474-.415c-.612.306-1.988.633-3.779.633-5.09 0-7.71-3.167-7.71-7.36 0-5.024 3.582-7.82 8.038-7.82 1.725 0 3.036.35 3.626.655l-.678 2.643a7.19 7.19 0 0 0-2.795-.546c-2.643 0-4.696 1.594-4.696 4.87 0 2.95 1.747 4.806 4.717 4.806 1.005 0 2.12-.218 2.774-.48l.503 2.599zm3.057.415h3.342V52.552h-3.342zm13.826-6.269l-.917-3.123c-.262-.874-.525-1.965-.743-2.84h-.044c-.218.875-.436 1.988-.677 2.84l-.873 3.123h3.254zm-3.735 2.49l-1.048 3.779h-3.451l4.5-14.722h4.367l4.566 14.722h-3.583l-1.135-3.779h-4.216zm11.335-10.943h3.343v11.926h5.853v2.796h-9.196zm17.431 11.293c.894.459 2.272.917 3.69.917 1.53 0 2.338-.634 2.338-1.594 0-.918-.699-1.442-2.47-2.075-2.444-.852-4.04-2.206-4.04-4.347 0-2.512 2.097-4.434 5.57-4.434 1.66 0 2.884.35 3.758.743l-.743 2.686a7.011 7.011 0 0 0-3.08-.698c-1.44 0-2.14.655-2.14 1.419 0 .939.83 1.354 2.73 2.075 2.599.961 3.823 2.315 3.823 4.39 0 2.468-1.902 4.566-5.942 4.566-1.683 0-3.342-.438-4.172-.897l.678-2.751zm14.962-8.497h-3.954v-2.796h11.314v2.796h-4.019v11.926h-3.341zm11.532 4.609c0 2.883 1.354 4.914 3.582 4.914 2.25 0 3.539-2.14 3.539-5.002 0-2.642-1.268-4.914-3.561-4.914-2.25 0-3.56 2.14-3.56 5.002m10.638-.197c0 4.827-2.927 7.754-7.232 7.754-4.367 0-6.923-3.298-6.923-7.492 0-4.412 2.818-7.71 7.164-7.71 4.522 0 6.99 3.386 6.99 7.448m5.92-.677h1.31c1.66 0 2.641-.83 2.641-2.119 0-1.354-.916-2.031-2.444-2.053-.81 0-1.268.066-1.508.11v4.062zm-3.3-6.334c1.07-.175 2.666-.306 4.434-.306 2.185 0 3.714.328 4.762 1.158.874.699 1.354 1.725 1.354 3.08 0 1.878-1.331 3.167-2.599 3.625v.066c1.027.415 1.595 1.398 1.965 2.752.459 1.66.919 3.582 1.202 4.15h-3.406c-.24-.415-.592-1.616-1.027-3.43-.393-1.834-1.027-2.336-2.382-2.358h-1.004v5.788h-3.299V52.749zm22.148 8.3h-5.416v3.494h6.049v2.73h-9.393V52.552h9.087v2.73h-5.743v3.058h5.416z"/></g></svg>